PathFileType	4	(X/Y/Z)	Walk9.trc
DataRate	CameraRate	NumFrames	NumMarkers	Units	OrigDataRate	OrigDataStartFrame	OrigNumFrames
200.000000	200.000000	8	59	mm	200.000000	364	587
Frame#	Times		LFHD		RFHD		CLAV		STRN		LASI		RASI		RACR1		RUA1		RElbow		RFA1		RWRR		RWRU		RCAR		LACR1		LUA1		LElbow		LFA1		LWRR		RTH3		RTH2		RTB1		RTB2		RTB4		LTH1		LTH3		LTH2		LTB1		LTB2		LTB4		LMT1		LTB3		LCAR		LLFC		LWRU		LMFC		LToe		LMT5		RTB3		RMFC		RMMAL		RElbowM		LTH4		RTH4		RMT1		RLFC		RToe		LBHD		RCAL		RTH1		RBack		RPSI		C7		T10		LPSI		LElbowM		LMMAL		LLMAL		RBHD		LCAL
			X1	Y1	Z1	X2	Y2	Z2	X3	Y3	Z3	X4	Y4	Z4	X5	Y5	Z5	X6	Y6	Z6	X7	Y7	Z7	X8	Y8	Z8	X9	Y9	Z9	X10	Y10	Z10	X11	Y11	Z11	X12	Y12	Z12	X13	Y13	Z13	X14	Y14	Z14	X15	Y15	Z15	X16	Y16	Z16	X17	Y17	Z17	X18	Y18	Z18	X19	Y19	Z19	X20	Y20	Z20	X21	Y21	Z21	X22	Y22	Z22	X23	Y23	Z23	X24	Y24	Z24	X25	Y25	Z25	X26	Y26	Z26	X27	Y27	Z27	X28	Y28	Z28	X29	Y29	Z29	X30	Y30	Z30	X31	Y31	Z31	X32	Y32	Z32	X33	Y33	Z33	X34	Y34	Z34	X35	Y35	Z35	X36	Y36	Z36	X37	Y37	Z37	X38	Y38	Z38	X39	Y39	Z39	X40	Y40	Z40	X41	Y41	Z41	X42	Y42	Z42	X43	Y43	Z43	X44	Y44	Z44	X45	Y45	Z45	X46	Y46	Z46	X47	Y47	Z47	X48	Y48	Z48	X49	Y49	Z49	X50	Y50	Z50	X51	Y51	Z51	X52	Y52	Z52	X53	Y53	Z53	X54	Y54	Z54	X55	Y55	Z55	X56	Y56	Z56	X57	Y57	Z57	X58	Y58	Z58	X59	Y59	Z59

364	1.82	347.23	1616.8	-50.805	346.27	1621.9	48.13	343.9	1365.6	13.342	409.9	1208.4	7.2663	249.39	954.66	-173.45	330.78	938.36	184.03	232.98	1453.3	184.9	176.75	1298	306.06	153.76	1150.9	358.17	149.67	995.65	378.64	140.61	872.27	314.48	135.55	882.43	395.4	144.38	789.78	365.88	220.25	1424.6	-167.76	222.78	1253.7	-259.91	263.22	1098.2	-319.96	339.51	981.17	-331.24	435.35	892.82	-271.77	384.5	607.98	192.78	387.18	713.21	189.97	503.36	403.03	104.48	497.95	310.53	154.57	513.82	317.26	95.604	129.12	728.22	-188.65	99.266	560.74	-169.07	172.05	635.99	-170.73	59.346	337.93	-98.266	-25.619	285.55	-125.84	7.2621	275.68	-73.765	-101.33	34.664	-22.718	-52.805	216.37	-51.946	487.74	825.55	-304.19	57.455	483.07	-162	403.29	856.35	-328.18	99.013	461.61	-10.594	-55.404	23.615	-64.336	-173.12	33.366	-90.936	523.85	232.15	86.689	392.86	498.53	31.53	510.88	91.948	27.188	91.562	1089.1	262.22	113.69	645.47	-178.45	341.49	680.73	209.35	647.03	53.716	51.513	416.5	501.32	184.12	685.86	69.438	83.111	194.49	1544.3	-60.742	427.4	40.288	65.379	296.03	753.15	224.6	83.747	1336.5	130.79	42.91	993	85.531	147.48	1445.3	15.162	80.654	1131.5	37.513	34.943	1009	2.6073	215.69	1017.5	-233.96	-184.6	139.87	45.324	-220.26	143.32	-36.947	207.95	1557.1	87.316	-271.81	147.45	25.189
365	1.825	354.45	1616.9	-49.418	353.48	1621.9	49.506	351.25	1365.5	14.518	417.26	1208.4	8.1545	257.17	954.56	-172.23	338.09	938.83	184.31	240.28	1452.8	186.23	184.25	1297	306.92	161.39	1149.8	358.77	157.37	994.51	379.04	148.39	871.21	314.71	143.31	881.27	395.63	152.26	788.72	366.05	227.77	1424.9	-166.57	229.56	1254	-258.89	268.74	1098.3	-318.94	344.18	980.73	-330.49	439.6	891.73	-271.32	392.3	609	193.25	394.54	714.24	190.03	509.56	402.53	104.31	503.2	310.09	154.43	518.84	316.64	95.381	136.56	728.09	-188.74	106.83	560.51	-169.91	179.53	635.84	-170.98	65.355	338.01	-99.564	-20.314	286.8	-127.12	12.42	276.44	-75.042	-101.09	34.473	-22.442	-48.322	217.84	-53.277	491.43	824.13	-303.91	64.897	483.04	-163.17	407.14	855.49	-327.64	106.34	461.07	-11.672	-55.896	23.569	-64.11	-172.2	34.567	-90.956	527.67	231.41	86.392	400.49	499.96	31.657	512.38	91.389	26.825	99.288	1088	262.73	121.2	645.3	-178.97	349.07	681.65	209.7	648.24	50.434	50.786	424.05	501.74	184.47	687.69	65.477	82.041	201.75	1544.3	-59.448	428.22	41.059	65.391	303.42	753.97	224.86	91.009	1336.2	131.75	49.969	993.04	85.714	154.91	1445.4	16.421	87.644	1131.6	37.653	42.005	1008.8	2.3935	220.88	1017.8	-232.86	-181.01	143.04	43.938	-216.69	146.94	-38.238	215.23	1557	88.633	-267.72	152.43	23.858
366	1.83	361.67	1617.1	-48.042	360.7	1622	50.871	358.58	1365.5	15.684	424.57	1208.5	9.0393	264.96	954.53	-170.97	345.36	939.43	184.7	247.58	1452.3	187.52	191.78	1296.1	307.76	169.08	1148.8	359.33	165.13	993.46	379.39	156.24	870.24	314.89	151.16	880.2	395.82	160.23	787.75	366.18	235.29	1425.2	-165.38	236.35	1254.4	-257.85	274.21	1098.4	-317.89	348.74	980.33	-329.72	443.72	890.63	-270.86	399.95	609.98	193.72	401.85	715.22	190.14	515.61	402.01	104.09	508.3	309.64	154.22	523.7	316.01	95.088	144.17	728.01	-188.89	114.68	560.32	-170.86	187.23	635.77	-171.29	71.689	338.14	-101	-14.685	288.14	-128.51	17.933	277.27	-76.461	-100.77	34.321	-22.154	-43.494	219.39	-54.725	494.94	822.71	-303.65	72.666	483.03	-164.46	410.82	854.65	-327.09	113.99	460.55	-12.869	-56.385	23.496	-63.903	-171.11	35.911	-90.982	531.34	230.68	86.004	408.26	501.39	31.676	513.72	90.87	26.403	107.06	1087.1	263.22	128.93	645.19	-179.58	356.55	682.56	210.08	649.28	47.396	50.005	431.44	502.08	184.79	689.34	61.795	80.912	209	1544.4	-58.171	428.96	41.783	65.373	310.79	754.83	225.16	98.26	1336.1	132.7	57	993.09	85.859	162.36	1445.6	17.649	94.612	1131.7	37.798	49.039	1008.7	2.1188	226.03	1018.3	-231.72	-177.02	146.33	42.476	-212.75	150.68	-39.593	222.49	1556.9	89.939	-263.19	157.58	22.468
367	1.835	368.89	1617.3	-46.683	367.91	1622.1	52.221	365.89	1365.5	16.839	431.81	1208.6	9.9189	272.73	954.57	-169.68	352.58	940.12	185.22	254.88	1452	188.79	199.35	1295.3	308.59	176.82	1147.9	359.84	172.97	992.51	379.71	164.17	869.35	315.04	159.09	879.23	395.97	168.3	786.87	366.26	242.82	1425.7	-164.19	243.15	1254.9	-256.82	279.62	1098.6	-316.81	353.2	979.98	-328.94	447.7	889.54	-270.4	407.39	610.86	194.17	409.06	716.1	190.31	521.5	401.46	103.8	513.24	309.15	153.91	528.4	315.38	94.706	151.95	727.99	-189.08	122.81	560.16	-171.91	195.15	635.77	-171.65	78.353	338.34	-102.56	-8.7188	289.56	-130.01	23.813	278.18	-78.015	-100.35	34.226	-21.866	-38.306	221.02	-56.284	498.28	821.27	-303.41	80.761	483.04	-165.87	414.34	853.83	-326.54	121.98	460.03	-14.185	-56.843	23.39	-63.727	-169.8	37.412	-91.015	534.83	229.96	85.509	416.08	502.76	31.595	514.9	90.375	25.915	114.88	1086.2	263.67	136.89	645.13	-180.29	363.9	683.4	210.46	650.18	44.595	49.179	438.65	502.33	185.04	690.83	58.377	79.737	216.23	1544.6	-56.911	429.64	42.453	65.318	318.09	755.66	225.48	105.5	1336	133.64	64.002	993.17	85.974	169.79	1445.9	18.848	101.56	1131.9	37.956	56.05	1008.6	1.8092	231.14	1018.8	-230.53	-172.62	149.71	40.949	-208.42	154.53	-41.005	229.75	1557	91.233	-258.18	162.88	21.029
368	1.84	376.09	1617.5	-45.346	375.12	1622.3	53.552	373.18	1365.6	17.979	438.99	1208.8	10.791	280.49	954.7	-168.37	359.75	940.9	185.85	262.17	1451.7	190.02	206.95	1294.5	309.4	184.62	1147.1	360.31	180.86	991.66	379.98	172.16	868.56	315.14	167.09	878.35	396.08	176.46	786.1	366.3	250.31	1426.2	-163.01	249.95	1255.5	-255.77	284.98	1098.9	-315.71	357.56	979.67	-328.15	451.55	888.46	-269.94	414.58	611.59	194.57	416.16	716.83	190.54	527.2	400.89	103.41	518.02	308.63	153.51	532.91	314.73	94.221	159.88	728.03	-189.32	131.22	560.03	-173.05	203.28	635.86	-172.05	85.352	338.59	-104.25	-2.4067	291.06	-131.6	30.068	279.15	-79.691	-99.786	34.211	-21.59	-32.744	222.72	-57.943	501.44	819.83	-303.19	89.179	483.07	-167.38	417.72	853.04	-325.98	130.31	459.53	-15.614	-57.235	23.247	-63.595	-168.26	39.08	-91.058	538.15	229.25	84.901	423.86	504.01	31.426	515.95	89.893	25.362	122.73	1085.5	264.1	145.07	645.12	-181.09	371.08	684.13	210.83	650.94	42.024	48.322	445.64	502.47	185.22	692.17	55.213	78.538	223.45	1544.8	-55.67	430.26	43.064	65.223	325.29	756.42	225.82	112.72	1336	134.59	70.969	993.27	86.072	177.21	1446.3	20.018	108.48	1132.2	38.134	63.042	1008.5	1.4923	236.21	1019.4	-229.3	-167.77	153.18	39.364	-203.69	158.47	-42.468	237	1557.1	92.514	-252.7	168.31	19.546
369	1.845	383.28	1617.8	-44.034	382.32	1622.5	54.86	380.42	1365.8	19.101	446.09	1209	11.655	288.2	954.9	-167.08	366.86	941.74	186.58	269.45	1451.6	191.23	214.56	1293.9	310.2	192.45	1146.3	360.74	188.82	990.91	380.21	180.22	867.88	315.2	175.18	877.57	396.13	184.71	785.42	366.28	257.77	1426.8	-161.82	256.75	1256.1	-254.73	290.29	1099.2	-314.59	361.82	979.41	-327.35	455.27	887.4	-269.48	421.48	612.13	194.92	423.11	717.38	190.84	532.69	400.28	102.93	522.63	308.08	153	537.22	314.06	93.631	167.98	728.12	-189.61	139.88	559.95	-174.28	211.63	636.02	-172.51	92.686	338.91	-106.02	4.2603	292.62	-133.29	36.699	280.2	-81.47	-99.046	34.301	-21.343	-26.802	224.49	-59.687	504.43	818.39	-302.98	97.912	483.11	-168.98	420.94	852.29	-325.42	138.99	459.04	-17.143	-57.518	23.064	-63.521	-166.44	40.928	-91.12	541.29	228.53	84.181	431.52	505.1	31.184	516.87	89.414	24.749	130.62	1084.9	264.51	153.45	645.18	-181.96	378.05	684.7	211.17	651.6	39.674	47.451	452.4	502.51	185.33	693.37	52.29	77.338	230.63	1545.2	-54.448	430.81	43.614	65.089	332.34	757.06	226.16	119.92	1336.2	135.55	77.898	993.41	86.166	184.58	1446.8	21.163	115.37	1132.5	38.343	70.016	1008.4	1.1955	241.23	1020.1	-228.02	-162.49	156.71	37.731	-198.54	162.49	-43.976	244.23	1557.2	93.78	-246.74	173.84	18.027
370	1.85	390.46	1618.2	-42.753	389.51	1622.8	56.14	387.63	1366	20.201	453.12	1209.3	12.509	295.87	955.18	-165.79	373.91	942.62	187.4	276.71	1451.6	192.41	222.2	1293.4	310.98	200.33	1145.7	361.13	196.85	990.26	380.4	188.34	867.3	315.2	183.35	876.9	396.15	193.06	784.86	366.21	265.17	1427.5	-160.64	263.52	1256.9	-253.69	295.55	1099.7	-313.45	365.99	979.21	-326.54	458.86	886.35	-269.01	428.1	612.48	195.18	429.9	717.73	191.21	537.97	399.64	102.34	527.06	307.49	152.39	541.32	313.37	92.937	176.21	728.26	-189.92	148.8	559.9	-175.56	220.17	636.26	-173	100.35	339.28	-107.88	11.289	294.23	-135.03	43.706	281.3	-83.326	-98.084	34.522	-21.142	-20.474	226.32	-61.496	507.25	816.96	-302.78	106.95	483.18	-170.66	424.01	851.58	-324.85	148.01	458.58	-18.754	-57.644	22.839	-63.519	-164.3	42.967	-91.209	544.26	227.8	83.361	438.96	505.99	30.887	517.69	88.932	24.086	138.53	1084.4	264.9	162.04	645.29	-182.91	384.79	685.11	211.47	652.15	37.539	46.58	458.9	502.45	185.35	694.45	49.596	76.156	237.79	1545.6	-53.245	431.3	44.105	64.918	339.23	757.55	226.5	127.09	1336.4	136.51	84.784	993.58	86.268	191.9	1447.3	22.284	122.23	1132.9	38.588	76.973	1008.3	0.94365	246.22	1020.9	-226.72	-156.77	160.3	36.061	-192.97	166.57	-45.52	251.44	1557.5	95.028	-240.31	179.44	16.479
371	1.855	397.61	1618.6	-41.507	396.69	1623.2	57.389	394.79	1366.3	21.277	460.08	1209.6	13.351	303.49	955.54	-164.52	380.89	943.53	188.28	283.95	1451.6	193.55	229.85	1293	311.76	208.24	1145.2	361.5	204.93	989.72	380.54	196.53	866.84	315.16	191.59	876.33	396.12	201.49	784.39	366.08	272.51	1428.2	-159.47	270.27	1257.6	-252.64	300.76	1100.2	-312.28	370.06	979.06	-325.72	462.31	885.32	-268.55	434.43	612.62	195.37	436.51	717.88	191.63	543.02	398.96	101.65	531.32	306.88	151.7	545.23	312.66	92.151	184.59	728.45	-190.27	157.96	559.89	-176.89	228.9	636.57	-173.53	108.35	339.7	-109.77	18.682	295.89	-136.83	51.083	282.45	-85.228	-96.848	34.901	-21.008	-13.765	228.19	-63.346	509.92	815.54	-302.59	116.29	483.26	-172.39	426.95	850.91	-324.29	157.34	458.16	-20.425	-57.554	22.571	-63.604	-161.8	45.206	-91.339	547.05	227.07	82.46	446.13	506.68	30.55	518.41	88.446	23.384	146.45	1084	265.27	170.81	645.46	-183.91	391.3	685.33	211.72	652.62	35.608	45.721	465.15	502.31	185.3	695.42	47.124	75.011	244.9	1546	-52.061	431.74	44.537	64.716	345.93	757.89	226.82	134.24	1336.7	137.49	91.623	993.81	86.392	199.15	1447.8	23.385	129.07	1133.3	38.874	83.908	1008.4	0.75701	251.16	1021.8	-225.39	-150.63	163.93	34.366	-186.98	170.69	-47.09	258.63	1557.8	96.259	-233.42	185.08	14.908
